<?xml version="1.0" encoding="UTF-8" standalone="no"?>
<svg
   width="456"
   height="456"
   viewBox="0 0 456 456"
   version="1.1"
   xml:space="preserve"
   style="fill-rule:evenodd;clip-rule:evenodd;stroke-linejoin:round;stroke-miterlimit:2;"
   id="svg104"
   sodipodi:docname="appiconfg.svg"
   inkscape:version="1.1 (c68e22c387, 2021-05-23)"
   xmlns:inkscape="http://www.inkscape.org/namespaces/inkscape"
   xmlns:sodipodi="http://sodipodi.sourceforge.net/DTD/sodipodi-0.dtd"
   xmlns="http://www.w3.org/2000/svg"
   xmlns:svg="http://www.w3.org/2000/svg">
<g
   aria-label="MSTestX"
   id="text1772"
   style="font-size:80px;line-height:1.25"
   transform="matrix(0.85144644,0,0,0.85144644,34.833312,37.216351)" /><path
   id="path8318"
   style="fill:#ffffff;stroke-width:11.8608"
   d="m 234.29385,270.62609 c 5.46781,0 9.90374,4.43593 9.90374,9.90374 0,5.46781 -4.43593,9.90373 -9.90374,9.90373 -5.46781,0 -9.90374,-4.43592 -9.90374,-9.90373 0,-5.46781 4.43593,-9.90374 9.90374,-9.90374 z m -28.31164,-5.08826 c -5.32548,0 -9.6428,4.31731 -9.6428,9.64279 0,5.32548 4.31732,9.6428 9.6428,9.6428 5.32549,0 9.6428,-4.31732 9.6428,-9.6428 0,-5.32548 -4.31731,-9.64279 -9.6428,-9.64279 z m 27.17301,-7.35368 c 0,-3.90219 -3.16682,-7.06901 -7.06902,-7.06901 -3.90219,0 -7.06901,3.16682 -7.06901,7.06901 0,3.9022 3.16682,7.06902 7.06901,7.06902 3.9022,0 7.06902,-3.16682 7.06902,-7.06902 z m 55.42534,99.1797 H 152.34785 c -19.167,0 -25.77345,-16.36786 -19.7719,-34.18271 0,0 23.61478,-44.02716 62.11481,-107.22131 v -36.59044 h -2.37214 c -3.45149,0.0118 -6.25062,-2.78728 -6.25062,-6.21505 0.0118,-3.42775 2.79913,-6.22689 6.25062,-6.23876 l 56.33862,0.0118 c 3.42776,-0.0118 6.2269,2.78728 6.2269,6.2269 0,3.42776 -2.79914,6.21504 -6.2269,6.21504 h -2.38401 v 36.60231 c 38.50003,63.19414 62.10294,107.07897 62.10294,107.07897 5.98969,17.81486 -0.60489,34.31318 -19.79561,34.31318 z m -10.10537,-60.20523 c -6.25062,-11.31516 -34.23016,-59.7901 -43.26806,-74.59234 l -1.50632,-2.49076 h -26.46136 l -1.50631,2.49076 c -9.82072,16.13064 -39.37774,67.7724 -43.38667,74.59234 z M 354.17237,138.40394 H 342.308 l -8.57762,-13.09357 -8.73797,13.09357 h -11.32994 l 14.109,-20.04117 -13.81507,-19.747254 h 11.83766 l 8.28369,12.398814 8.52419,-12.398814 h 11.35667 l -13.89522,19.346424 z m -42.35369,-0.26721 q -1.54986,0.40083 -3.28674,0.6146 -1.73691,0.24049 -4.24875,0.24049 -5.61152,0 -8.36386,-2.27133 -2.72559,-2.27134 -2.72559,-7.77598 v -14.02883 h -3.9548 v -6.52006 h 3.9548 v -8.577634 h 9.61976 v 8.577634 h 9.00518 v 6.52006 h -9.00518 v 10.63519 q 0,1.57658 0.0273,2.75232 0.0273,1.17575 0.42758,2.11101 0.37409,0.93525 1.30936,1.49641 0.96202,0.53443 2.77904,0.53443 0.74818,0 1.95068,-0.32065 1.22919,-0.32066 1.71017,-0.58788 h 0.80167 z m -25.57255,-9.24567 q 0,4.64956 -4.16856,7.50877 -4.16857,2.83249 -11.41011,2.83249 -4.00825,0 -7.26826,-0.7482 -3.26005,-0.7482 -5.23744,-1.65674 v -7.90959 h 0.88185 q 0.72149,0.50771 1.65673,1.1223 0.96203,0.58788 2.6989,1.28264 1.4964,0.6146 3.39363,1.06887 1.89722,0.42754 4.06168,0.42754 2.83249,0 4.19529,-0.6146 1.3628,-0.64131 1.3628,-1.87051 0,-1.09559 -0.80167,-1.57657 -0.80167,-0.50771 -3.04627,-0.96199 -1.06889,-0.2405 -2.91265,-0.5077 -1.81706,-0.29394 -3.31346,-0.69477 -4.08841,-1.06886 -6.06581,-3.31348 -1.97739,-2.27134 -1.97739,-5.63825 0,-4.32889 4.08841,-7.1881 4.11512,-2.88594 11.22305,-2.88594 3.36692,0 6.4399,0.69478 3.09969,0.66804 4.83661,1.44296 v 7.58892 h -0.82835 q -2.13773,-1.46969 -4.89006,-2.37821 -2.72559,-0.93526 -5.53136,-0.93526 -2.32476,0 -3.92807,0.64132 -1.57656,0.64131 -1.57656,1.81707 0,1.06887 0.72149,1.63001 0.72149,0.56116 3.39363,1.1223 1.46969,0.29394 3.15315,0.58788 1.71018,0.26721 3.42036,0.69476 3.79446,0.9887 5.61152,3.12642 1.81708,2.11101 1.81708,5.29088 z m -32.86754,-3.71429 h -22.01857 q 0.21376,3.52725 2.67216,5.39776 2.4851,1.87051 7.29498,1.87051 3.04627,0 5.90547,-1.09559 2.85921,-1.09557 4.51595,-2.3515 h 1.06889 v 7.72254 q -3.26004,1.30936 -6.14596,1.89723 -2.88594,0.58789 -6.38647,0.58789 -9.03189,0 -13.84177,-4.06168 -4.80989,-4.06169 -4.80989,-11.57045 0,-7.4286 4.54267,-11.75749 4.56939,-4.35562 12.5057,-4.35562 7.32171,0 11.0093,3.7143 3.68757,3.68758 3.68757,10.63519 z m -9.56632,-5.63826 q -0.0802,-3.01953 -1.49641,-4.54267 -1.41625,-1.52313 -4.40905,-1.52313 -2.77905,0 -4.5694,1.44297 -1.79034,1.44297 -2.00411,4.62283 z m -25.62599,-13.22718 h -12.42554 v 32.09261 h -10.26108 v -32.09261 h -12.42553 v -7.695814 h 35.11215 z m -38.1584,19.58692 q 0,5.87874 -4.99695,9.56632 -4.97021,3.66085 -13.52111,3.66085 -4.94349,0 -8.63107,-0.85508 -3.66086,-0.88181 -6.86744,-2.21789 v -9.5396 h 1.12231 q 3.17986,2.53854 7.10793,3.90135 3.9548,1.3628 7.58892,1.3628 0.93526,0 2.45839,-0.16034 1.52314,-0.16033 2.48512,-0.53443 1.17574,-0.48099 1.92396,-1.20247 0.77491,-0.72148 0.77491,-2.13773 0,-1.30936 -1.12231,-2.24461 -1.09558,-0.96198 -3.23331,-1.46969 -2.24461,-0.53443 -4.75644,-0.98869 -2.48511,-0.48099 -4.67628,-1.20248 -5.02365,-1.63001 -7.24154,-4.40905 -2.19116,-2.80577 -2.19116,-6.94761 0,-5.55809 4.9702,-9.05862 4.99694,-3.527244 12.82636,-3.527244 3.92808,0 7.74926,0.77492 3.8479,0.7482 6.65367,1.897234 v 9.1655 h -1.09558 q -2.40495,-1.92395 -5.90548,-3.20658 -3.47379,-1.30936 -7.10793,-1.30936 -1.28264,0 -2.56527,0.18706 -1.25592,0.16033 -2.43167,0.64131 -1.04214,0.40083 -1.79035,1.22919 -0.74819,0.80165 -0.74819,1.84379 0,1.57658 1.20247,2.43167 1.20247,0.82837 4.54267,1.52313 2.19117,0.45427 4.19528,0.88181 2.03084,0.42755 4.35562,1.17575 4.56938,1.49641 6.73383,4.0884 2.19118,2.56527 2.19118,6.68039 z m -42.00633,12.50569 h -10.20764 v -26.64141 l -7.37515,17.28886 h -7.08122 l -7.37516,-17.28886 v 26.64141 H 96.309178 V 98.615516 H 108.227 l 8.95172,19.961024 8.92501,-19.961024 h 11.91782 z" /><g
   id="g8322"
   style="fill:#ffffff"
   transform="matrix(14.762773,0,0,14.762773,105.0913,154.41196)">
</g><g
   id="g8324"
   style="fill:#ffffff"
   transform="matrix(14.762773,0,0,14.762773,105.0913,154.41196)">
</g><g
   id="g8326"
   style="fill:#ffffff"
   transform="matrix(14.762773,0,0,14.762773,105.0913,154.41196)">
</g><g
   id="g8328"
   style="fill:#ffffff"
   transform="matrix(14.762773,0,0,14.762773,105.0913,154.41196)">
</g><g
   id="g8330"
   style="fill:#ffffff"
   transform="matrix(14.762773,0,0,14.762773,105.0913,154.41196)">
</g><g
   id="g8332"
   style="fill:#ffffff"
   transform="matrix(14.762773,0,0,14.762773,105.0913,154.41196)">
</g><g
   id="g8334"
   style="fill:#ffffff"
   transform="matrix(14.762773,0,0,14.762773,105.0913,154.41196)">
</g><g
   id="g8336"
   style="fill:#ffffff"
   transform="matrix(14.762773,0,0,14.762773,105.0913,154.41196)">
</g><g
   id="g8338"
   style="fill:#ffffff"
   transform="matrix(14.762773,0,0,14.762773,105.0913,154.41196)">
</g><g
   id="g8340"
   style="fill:#ffffff"
   transform="matrix(14.762773,0,0,14.762773,105.0913,154.41196)">
</g><g
   id="g8342"
   style="fill:#ffffff"
   transform="matrix(14.762773,0,0,14.762773,105.0913,154.41196)">
</g><g
   id="g8344"
   style="fill:#ffffff"
   transform="matrix(14.762773,0,0,14.762773,105.0913,154.41196)">
</g><g
   id="g8346"
   style="fill:#ffffff"
   transform="matrix(14.762773,0,0,14.762773,105.0913,154.41196)">
</g><g
   id="g8348"
   style="fill:#ffffff"
   transform="matrix(14.762773,0,0,14.762773,105.0913,154.41196)">
</g><g
   id="g8350"
   style="fill:#ffffff"
   transform="matrix(14.762773,0,0,14.762773,105.0913,154.41196)">
</g></svg>
