<?xml version="1.0" encoding="UTF-8" standalone="no"?>
<svg
   width="456"
   height="456"
   viewBox="0 0 456 456"
   version="1.1"
   xml:space="preserve"
   style="fill-rule:evenodd;clip-rule:evenodd;stroke-linejoin:round;stroke-miterlimit:2;"
   id="svg104"
   sodipodi:docname="appiconfg.svg"
   inkscape:version="1.1 (c68e22c387, 2021-05-23)"
   xmlns:inkscape="http://www.inkscape.org/namespaces/inkscape"
   xmlns:sodipodi="http://sodipodi.sourceforge.net/DTD/sodipodi-0.dtd"
   xmlns="http://www.w3.org/2000/svg"
   xmlns:svg="http://www.w3.org/2000/svg"><defs
   id="defs108" /><sodipodi:namedview
   id="namedview106"
   pagecolor="#ffffff"
   bordercolor="#666666"
   borderopacity="1.0"
   inkscape:pageshadow="2"
   inkscape:pageopacity="0"
   inkscape:pagecheckerboard="true"
   showgrid="false"
   showguides="false"
   inkscape:zoom="2.8969298"
   inkscape:cx="128.9296"
   inkscape:cy="228"
   inkscape:window-width="3840"
   inkscape:window-height="1529"
   inkscape:window-x="-8"
   inkscape:window-y="-8"
   inkscape:window-maximized="1"
   inkscape:current-layer="svg104" />
    
    
    
    
<text
   xml:space="preserve"
   style="font-style:normal;font-weight:normal;font-size:80px;line-height:1.25;font-family:sans-serif;fill:#000000;fill-opacity:1;stroke:none"
   x="32.793339"
   y="95.963684"
   id="text1772"><tspan
     sodipodi:role="line"
     id="tspan1770"
     x="32.793339"
     y="95.963684"
     style="font-style:normal;font-variant:normal;font-weight:bold;font-stretch:normal;font-size:80px;font-family:sans-serif;-inkscape-font-specification:'sans-serif Bold';fill:#ffffff">MSTestX</tspan></text><g
   id="g8374"
   transform="matrix(17.338463,0,0,17.338463,82.51604,137.64296)"
   style="fill:#ffffff"><g
     id="g8320"
     style="fill:#ffffff">
	<path
   style="fill:#ffffff"
   d="m 9.194,8.744 c 0.461,0 0.835,0.374 0.835,0.835 0,0.461 -0.374,0.835 -0.835,0.835 -0.461,0 -0.835,-0.374 -0.835,-0.835 0,-0.461 0.374,-0.835 0.835,-0.835 z M 6.807,8.315 c -0.449,0 -0.813,0.364 -0.813,0.813 0,0.449 0.364,0.813 0.813,0.813 0.449,0 0.813,-0.364 0.813,-0.813 0,-0.449 -0.364,-0.813 -0.813,-0.813 z m 2.291,-0.62 c 0,-0.329 -0.267,-0.596 -0.596,-0.596 -0.329,0 -0.596,0.267 -0.596,0.596 0,0.329 0.267,0.596 0.596,0.596 0.329,0 0.596,-0.267 0.596,-0.596 z m 4.673,8.362 H 2.285 c -1.616,0 -2.173,-1.38 -1.667,-2.882 0,0 1.991,-3.712 5.237,-9.04 V 1.05 h -0.2 C 5.364,1.051 5.128,0.815 5.128,0.526 5.129,0.237 5.364,0.001 5.655,0 l 4.75,0.001 C 10.694,0 10.93,0.236 10.93,0.526 c 0,0.289 -0.236,0.524 -0.525,0.524 h -0.201 v 3.086 c 3.246,5.328 5.236,9.028 5.236,9.028 0.505,1.502 -0.051,2.893 -1.669,2.893 z M 12.919,10.981 C 12.392,10.027 10.033,5.94 9.271,4.692 L 9.144,4.482 H 6.913 l -0.127,0.21 c -0.828,1.36 -3.32,5.714 -3.658,6.289 z"
   id="path8318" />
</g><g
     id="g8322"
     style="fill:#ffffff">
</g><g
     id="g8324"
     style="fill:#ffffff">
</g><g
     id="g8326"
     style="fill:#ffffff">
</g><g
     id="g8328"
     style="fill:#ffffff">
</g><g
     id="g8330"
     style="fill:#ffffff">
</g><g
     id="g8332"
     style="fill:#ffffff">
</g><g
     id="g8334"
     style="fill:#ffffff">
</g><g
     id="g8336"
     style="fill:#ffffff">
</g><g
     id="g8338"
     style="fill:#ffffff">
</g><g
     id="g8340"
     style="fill:#ffffff">
</g><g
     id="g8342"
     style="fill:#ffffff">
</g><g
     id="g8344"
     style="fill:#ffffff">
</g><g
     id="g8346"
     style="fill:#ffffff">
</g><g
     id="g8348"
     style="fill:#ffffff">
</g><g
     id="g8350"
     style="fill:#ffffff">
</g></g></svg>
